<svg width="165" height="41" viewBox="0 0 165 41" fill="none" xmlns="http://www.w3.org/2000/svg">
<path d="M0.0861816 40.3039V0H7.68634V16.0064H8.72272L21.7927 0H31.5232L14.7107 19.864L32.099 40.3039H22.0806L8.72272 23.952H7.68634V40.3039H0.0861816ZM33.3643 40.3039L43.9585 0H57.2012L67.7953 40.3039H59.9649L57.7769 31.437H43.3827L41.1948 40.3039H33.3643ZM45.1676 24.4126H55.9921L51.098 4.77889H50.0616L45.1676 24.4126ZM72.6197 40.3039V0H86.726L93.6928 35.1219H94.7292L101.696 0H115.802V40.3039H108.433V5.58496H107.396L100.487 40.3039H87.9351L81.0259 5.58496H79.9895V40.3039H72.6197Z" fill="#B42318"/>
<path d="M123.848 18.7123V11.1553H125.273V14.1565H125.467L127.918 11.1553H129.742L126.59 14.8798L129.85 18.7123H127.972L125.467 15.6463H125.273V18.7123H123.848ZM130.649 18.7123V11.1553H132.009V18.7123H130.649ZM133.516 18.7123V13.3576H134.876V18.7123H133.516ZM134.196 12.7315C133.952 12.7315 133.743 12.6523 133.57 12.494C133.405 12.3356 133.322 12.1269 133.322 11.8678C133.322 11.6087 133.405 11.4 133.57 11.2417C133.743 11.0833 133.952 11.0042 134.196 11.0042C134.448 11.0042 134.657 11.0833 134.822 11.2417C134.988 11.4 135.071 11.6087 135.071 11.8678C135.071 12.1269 134.988 12.3356 134.822 12.494C134.657 12.6523 134.448 12.7315 134.196 12.7315ZM136.384 18.7123V13.3576H137.723V14.0593H137.917C138.004 13.8722 138.166 13.6959 138.403 13.5303C138.641 13.3576 139 13.2712 139.483 13.2712C139.9 13.2712 140.264 13.3684 140.573 13.5627C140.89 13.7499 141.134 14.0125 141.307 14.3508C141.48 14.6819 141.566 15.0705 141.566 15.5167V18.7123H140.206V15.6247C140.206 15.2217 140.105 14.9194 139.904 14.7179C139.709 14.5163 139.429 14.4156 139.062 14.4156C138.644 14.4156 138.32 14.5559 138.09 14.8366C137.86 15.1101 137.745 15.4952 137.745 15.9918V18.7123H136.384ZM143.036 18.7123V13.3576H144.396V18.7123H143.036ZM143.716 12.7315C143.472 12.7315 143.263 12.6523 143.09 12.494C142.925 12.3356 142.842 12.1269 142.842 11.8678C142.842 11.6087 142.925 11.4 143.09 11.2417C143.263 11.0833 143.472 11.0042 143.716 11.0042C143.968 11.0042 144.177 11.0833 144.342 11.2417C144.508 11.4 144.591 11.6087 144.591 11.8678C144.591 12.1269 144.508 12.3356 144.342 12.494C144.177 12.6523 143.968 12.7315 143.716 12.7315ZM145.904 18.7123V11.1553H147.265V15.3332H147.459L149.229 13.3576H151L148.528 15.9486L151.086 18.7123H149.337L147.459 16.5855H147.265V18.7123H145.904ZM123.33 29.5079L125.316 21.951H127.799L129.785 29.5079H128.317L127.907 27.8454H125.208L124.798 29.5079H123.33ZM125.543 26.5283H127.572L126.655 22.847H126.46L125.543 26.5283ZM132.957 29.6591C132.259 29.6591 131.686 29.5079 131.24 29.2057C130.794 28.9034 130.524 28.4716 130.43 27.9102L131.683 27.5863C131.733 27.8382 131.816 28.0361 131.931 28.1801C132.053 28.324 132.201 28.4284 132.374 28.4932C132.554 28.5507 132.748 28.5795 132.957 28.5795C133.273 28.5795 133.507 28.5255 133.658 28.4176C133.809 28.3024 133.885 28.1621 133.885 27.9965C133.885 27.831 133.813 27.7051 133.669 27.6187C133.525 27.5251 133.295 27.4496 132.978 27.392L132.676 27.338C132.302 27.266 131.96 27.1689 131.65 27.0465C131.341 26.917 131.093 26.7407 130.905 26.5175C130.718 26.2944 130.625 26.0065 130.625 25.6539C130.625 25.1213 130.819 24.7147 131.208 24.434C131.596 24.1461 132.107 24.0021 132.741 24.0021C133.338 24.0021 133.835 24.1353 134.231 24.4016C134.626 24.6679 134.885 25.0169 135.008 25.4488L133.745 25.8374C133.687 25.5639 133.568 25.3696 133.388 25.2544C133.216 25.1393 133 25.0817 132.741 25.0817C132.482 25.0817 132.284 25.1285 132.147 25.2221C132.01 25.3084 131.942 25.4308 131.942 25.5891C131.942 25.7618 132.014 25.8914 132.158 25.9778C132.302 26.0569 132.496 26.1181 132.741 26.1613L133.043 26.2153C133.446 26.2872 133.809 26.3844 134.133 26.5067C134.464 26.6219 134.724 26.791 134.911 27.0141C135.105 27.2301 135.202 27.5251 135.202 27.8994C135.202 28.4608 134.997 28.8962 134.587 29.2057C134.184 29.5079 133.64 29.6591 132.957 29.6591ZM136.977 31.6671V30.4796H139.892C140.093 30.4796 140.194 30.3716 140.194 30.1557V28.8062H140C139.942 28.9286 139.852 29.0509 139.73 29.1733C139.608 29.2956 139.442 29.3964 139.233 29.4756C139.025 29.5547 138.758 29.5943 138.435 29.5943C138.017 29.5943 137.65 29.5007 137.333 29.3136C137.024 29.1193 136.783 28.853 136.61 28.5147C136.437 28.1765 136.351 27.7878 136.351 27.3488V24.1533H137.711V27.2409C137.711 27.6439 137.808 27.9462 138.003 28.1477C138.204 28.3492 138.489 28.45 138.856 28.45C139.273 28.45 139.597 28.3132 139.827 28.0397C140.057 27.759 140.173 27.3704 140.173 26.8738V24.1533H141.533V30.458C141.533 30.825 141.425 31.1165 141.209 31.3324C140.993 31.5555 140.705 31.6671 140.345 31.6671H136.977ZM143.047 29.5079V24.1533H144.407V29.5079H143.047ZM143.727 23.5271C143.482 23.5271 143.274 23.448 143.101 23.2896C142.935 23.1313 142.853 22.9226 142.853 22.6635C142.853 22.4044 142.935 22.1957 143.101 22.0373C143.274 21.879 143.482 21.7998 143.727 21.7998C143.979 21.7998 144.188 21.879 144.353 22.0373C144.519 22.1957 144.602 22.4044 144.602 22.6635C144.602 22.9226 144.519 23.1313 144.353 23.2896C144.188 23.448 143.979 23.5271 143.727 23.5271ZM146.799 29.5079V25.276H145.439V24.1533H146.799V23.1601C146.799 22.793 146.907 22.5015 147.123 22.2856C147.346 22.0625 147.634 21.951 147.987 21.951H149.39V23.0737H148.462C148.26 23.0737 148.16 23.1817 148.16 23.3976V24.1533H149.563V25.276H148.16V29.5079H146.799ZM152.195 29.6591C151.813 29.6591 151.471 29.5943 151.169 29.4648C150.867 29.328 150.626 29.1337 150.446 28.8818C150.273 28.6227 150.187 28.3096 150.187 27.9426C150.187 27.5755 150.273 27.2696 150.446 27.0249C150.626 26.773 150.87 26.5859 151.18 26.4636C151.496 26.334 151.856 26.2692 152.259 26.2692H153.728V25.967C153.728 25.7151 153.648 25.5099 153.49 25.3516C153.332 25.1861 153.08 25.1033 152.734 25.1033C152.396 25.1033 152.144 25.1825 151.979 25.3408C151.813 25.492 151.705 25.6899 151.655 25.9346L150.402 25.5135C150.489 25.2401 150.626 24.9918 150.813 24.7686C151.007 24.5383 151.263 24.3548 151.579 24.2181C151.903 24.0741 152.295 24.0021 152.756 24.0021C153.461 24.0021 154.019 24.1785 154.429 24.5311C154.839 24.8838 155.045 25.3948 155.045 26.0641V28.0613C155.045 28.2772 155.145 28.3852 155.347 28.3852H155.779V29.5079H154.872C154.606 29.5079 154.386 29.4432 154.213 29.3136C154.041 29.1841 153.954 29.0113 153.954 28.7954V28.7846H153.749C153.72 28.871 153.656 28.9862 153.555 29.1301C153.454 29.2668 153.296 29.3892 153.08 29.4971C152.864 29.6051 152.569 29.6591 152.195 29.6591ZM152.432 28.5579C152.813 28.5579 153.123 28.4536 153.36 28.2449C153.605 28.0289 153.728 27.7446 153.728 27.392V27.284H152.356C152.105 27.284 151.907 27.338 151.763 27.446C151.619 27.5539 151.547 27.7051 151.547 27.8994C151.547 28.0937 151.622 28.252 151.773 28.3744C151.925 28.4968 152.144 28.5579 152.432 28.5579ZM158.436 29.6591C158.055 29.6591 157.713 29.5943 157.411 29.4648C157.108 29.328 156.867 29.1337 156.687 28.8818C156.515 28.6227 156.428 28.3096 156.428 27.9426C156.428 27.5755 156.515 27.2696 156.687 27.0249C156.867 26.773 157.112 26.5859 157.421 26.4636C157.738 26.334 158.098 26.2692 158.501 26.2692H159.969V25.967C159.969 25.7151 159.89 25.5099 159.732 25.3516C159.573 25.1861 159.321 25.1033 158.976 25.1033C158.638 25.1033 158.386 25.1825 158.22 25.3408C158.055 25.492 157.947 25.6899 157.896 25.9346L156.644 25.5135C156.731 25.2401 156.867 24.9918 157.054 24.7686C157.249 24.5383 157.504 24.3548 157.821 24.2181C158.145 24.0741 158.537 24.0021 158.998 24.0021C159.703 24.0021 160.261 24.1785 160.671 24.5311C161.081 24.8838 161.286 25.3948 161.286 26.0641V28.0613C161.286 28.2772 161.387 28.3852 161.589 28.3852H162.02V29.5079H161.114C160.847 29.5079 160.628 29.4432 160.455 29.3136C160.282 29.1841 160.196 29.0113 160.196 28.7954V28.7846H159.991C159.962 28.871 159.897 28.9862 159.796 29.1301C159.696 29.2668 159.537 29.3892 159.321 29.4971C159.106 29.6051 158.81 29.6591 158.436 29.6591ZM158.674 28.5579C159.055 28.5579 159.365 28.4536 159.602 28.2449C159.847 28.0289 159.969 27.7446 159.969 27.392V27.284H158.598C158.346 27.284 158.148 27.338 158.004 27.446C157.86 27.5539 157.788 27.7051 157.788 27.8994C157.788 28.0937 157.864 28.252 158.015 28.3744C158.166 28.4968 158.386 28.5579 158.674 28.5579ZM162.848 25.2652V24.5311H163.269C163.6 24.5311 163.766 24.3656 163.766 24.0345V23.6891H163.582C163.294 23.6891 163.053 23.6027 162.859 23.43C162.672 23.2572 162.578 23.0377 162.578 22.7714C162.578 22.4836 162.672 22.2496 162.859 22.0697C163.053 21.8898 163.294 21.7998 163.582 21.7998C163.877 21.7998 164.118 21.8934 164.305 22.0805C164.493 22.2604 164.586 22.5051 164.586 22.8146V24.0561C164.586 24.8622 164.183 25.2652 163.377 25.2652H162.848ZM123.848 40.3036V32.7466H126.493L127.799 39.332H127.993L129.3 32.7466H131.945V40.3036H130.563V33.7938H130.368L129.073 40.3036H126.719L125.424 33.7938H125.23V40.3036H123.848ZM135.073 40.4548C134.692 40.4548 134.35 40.39 134.048 40.2604C133.746 40.1237 133.505 39.9294 133.325 39.6775C133.152 39.4184 133.065 39.1053 133.065 38.7382C133.065 38.3712 133.152 38.0653 133.325 37.8206C133.505 37.5687 133.749 37.3816 134.059 37.2592C134.375 37.1297 134.735 37.0649 135.138 37.0649H136.606V36.7626C136.606 36.5107 136.527 36.3056 136.369 36.1473C136.211 35.9818 135.959 35.899 135.613 35.899C135.275 35.899 135.023 35.9782 134.858 36.1365C134.692 36.2876 134.584 36.4856 134.534 36.7303L133.281 36.3092C133.368 36.0357 133.505 35.7874 133.692 35.5643C133.886 35.334 134.141 35.1505 134.458 35.0137C134.782 34.8698 135.174 34.7978 135.635 34.7978C136.34 34.7978 136.898 34.9742 137.308 35.3268C137.718 35.6795 137.924 36.1905 137.924 36.8598V38.857C137.924 39.0729 138.024 39.1809 138.226 39.1809H138.658V40.3036H137.751C137.485 40.3036 137.265 40.2388 137.092 40.1093C136.92 39.9798 136.833 39.807 136.833 39.5911V39.5803H136.628C136.599 39.6667 136.534 39.7818 136.434 39.9258C136.333 40.0625 136.175 40.1849 135.959 40.2928C135.743 40.4008 135.448 40.4548 135.073 40.4548ZM135.311 39.3536C135.692 39.3536 136.002 39.2492 136.239 39.0405C136.484 38.8246 136.606 38.5403 136.606 38.1877V38.0797H135.235C134.984 38.0797 134.786 38.1337 134.642 38.2416C134.498 38.3496 134.426 38.5007 134.426 38.6951C134.426 38.8894 134.501 39.0477 134.652 39.1701C134.804 39.2924 135.023 39.3536 135.311 39.3536ZM139.653 40.3036V34.949H140.991V35.5535H141.186C141.265 35.3376 141.394 35.1793 141.574 35.0785C141.761 34.9778 141.977 34.9274 142.222 34.9274H142.87V36.1365H142.2C141.855 36.1365 141.571 36.2301 141.348 36.4172C141.124 36.5971 141.013 36.8778 141.013 37.2592V40.3036H139.653ZM143.932 40.3036V34.949H145.292V40.3036H143.932ZM144.612 34.3228C144.368 34.3228 144.159 34.2437 143.986 34.0853C143.821 33.927 143.738 33.7183 143.738 33.4592C143.738 33.2001 143.821 32.9914 143.986 32.833C144.159 32.6747 144.368 32.5955 144.612 32.5955C144.864 32.5955 145.073 32.6747 145.239 32.833C145.404 32.9914 145.487 33.2001 145.487 33.4592C145.487 33.7183 145.404 33.927 145.239 34.0853C145.073 34.2437 144.864 34.3228 144.612 34.3228ZM148.841 40.39C148.423 40.39 148.056 40.2964 147.74 40.1093C147.43 39.915 147.189 39.6487 147.016 39.3104C146.843 38.9722 146.757 38.5835 146.757 38.1445V34.949H148.117V38.0365C148.117 38.4396 148.215 38.7418 148.409 38.9434C148.61 39.1449 148.895 39.2456 149.262 39.2456C149.679 39.2456 150.003 39.1089 150.233 38.8354C150.464 38.5547 150.579 38.1661 150.579 37.6695V34.949H151.939V40.3036H150.6V39.6019H150.406C150.32 39.7818 150.158 39.9582 149.92 40.1309C149.683 40.3036 149.323 40.39 148.841 40.39ZM153.452 40.3036V32.7466H154.812V36.9246H155.007L156.777 34.949H158.548L156.076 37.5399L158.634 40.3036H156.885L155.007 38.1769H154.812V40.3036H153.452Z" fill="#101828"/>
</svg>
